{"accessors" : [{"bufferView" : 0, "byteOffset" : 0, "componentType" : 5123, "count" : 4848, "type" : "SCALAR", "max" : [1104], "min" : [0]}, {"bufferView" : 1, "byteOffset" : 0, "componentType" : 5126, "count" : 1105, "type" : "VEC3", "max" : [21.57979965209961, 164.63729858398438, 17.86370086669922], "min" : [-18.420299530029297, 148.39480590820312, -12.593799591064453], "name" : "POSITION"}, {"bufferView" : 1, "byteOffset" : 12, "componentType" : 5126, "count" : 1105, "type" : "VEC2", "max" : [0.8493899703025818, 0.9849799871444702], "min" : [0.03413999825716019, 0.30188000202178955], "name" : "TEXCOORD_0"}, {"bufferView" : 0, "byteOffset" : 9696, "componentType" : 5123, "count" : 52932, "type" : "SCALAR", "max" : [10139], "min" : [0]}, {"bufferView" : 2, "byteOffset" : 0, "componentType" : 5126, "count" : 10140, "type" : "VEC3", "max" : [24.635299682617188, 187.38870239257812, 22.225000381469727], "min" : [-21.930200576782227, 97.8053970336914, -22.005199432373047], "name" : "POSITION"}, {"bufferView" : 2, "byteOffset" : 12, "componentType" : 5126, "count" : 10140, "type" : "VEC2", "max" : [0.9979299902915955, 0.9984700083732605], "min" : [0.005280000157654285, 0.007149994373321533], "name" : "TEXCOORD_0"}, {"bufferView" : 0, "byteOffset" : 115560, "componentType" : 5123, "count" : 138852, "type" : "SCALAR", "max" : [26509], "min" : [0]}, {"bufferView" : 3, "byteOffset" : 0, "componentType" : 5126, "count" : 26510, "type" : "VEC3", "max" : [34.02410125732422, 185.54949951171875, 70.5873031616211], "min" : [-52.13859939575195, 95.1061019897461, -32.735801696777344], "name" : "POSITION"}, {"bufferView" : 3, "byteOffset" : 12, "componentType" : 5126, "count" : 26510, "type" : "VEC2", "max" : [0.9967300295829773, 0.992389976978302], "min" : [0.0028099999763071537, 0.00532001256942749], "name" : "TEXCOORD_0"}, {"bufferView" : 0, "byteOffset" : 393264, "componentType" : 5123, "count" : 14478, "type" : "SCALAR", "max" : [2629], "min" : [0]}, {"bufferView" : 4, "byteOffset" : 0, "componentType" : 5126, "count" : 2630, "type" : "VEC3", "max" : [11.386799812316895, 200.31149291992188, 16.56060028076172], "min" : [-8.5024995803833, 171.5908966064453, -7.501500129699707], "name" : "POSITION"}, {"bufferView" : 4, "byteOffset" : 12, "componentType" : 5126, "count" : 2630, "type" : "VEC2", "max" : [0.9646700024604797, 0.9832299947738647], "min" : [0.029659999534487724, 0.02126997709274292], "name" : "TEXCOORD_0"}, {"bufferView" : 0, "byteOffset" : 422220, "componentType" : 5123, "count" : 61062, "type" : "SCALAR", "max" : [11755], "min" : [0]}, {"bufferView" : 5, "byteOffset" : 0, "componentType" : 5126, "count" : 11756, "type" : "VEC3", "max" : [30.05340003967285, 120.73739624023438, 39.773799896240234], "min" : [-30.736600875854492, 8.961700439453125, -38.752601623535156], "name" : "POSITION"}, {"bufferView" : 5, "byteOffset" : 12, "componentType" : 5126, "count" : 11756, "type" : "VEC2", "max" : [0.9977700114250183, 0.9963499903678894], "min" : [0.004660000093281269, 0.005909979343414307], "name" : "TEXCOORD_0"}, {"bufferView" : 0, "byteOffset" : 544344, "componentType" : 5123, "count" : 60, "type" : "SCALAR", "max" : [21], "min" : [0]}, {"bufferView" : 6, "byteOffset" : 0, "componentType" : 5126, "count" : 22, "type" : "VEC3", "max" : [5.420899868011475, 183.3188934326172, 13.664799690246582], "min" : [-7.226200103759766, 175.2259979248047, 6.839799880981445], "name" : "POSITION"}, {"bufferView" : 6, "byteOffset" : 12, "componentType" : 5126, "count" : 22, "type" : "VEC2", "max" : [0.6071900129318237, 0.493369996547699], "min" : [0.3938499987125397, 0.3896999955177307], "name" : "TEXCOORD_0"}, {"bufferView" : 0, "byteOffset" : 544464, "componentType" : 5123, "count" : 3144, "type" : "SCALAR", "max" : [588], "min" : [0]}, {"bufferView" : 7, "byteOffset" : 0, "componentType" : 5126, "count" : 589, "type" : "VEC3", "max" : [14.893500328063965, 161.9521026611328, 19.443700790405273], "min" : [3.532900094985962, 150.5388946533203, 9.06719970703125], "name" : "POSITION"}, {"bufferView" : 7, "byteOffset" : 12, "componentType" : 5126, "count" : 589, "type" : "VEC2", "max" : [0.7224100232124329, 0.9831100106239319], "min" : [0.03553999960422516, 0.02601999044418335], "name" : "TEXCOORD_0"}, {"bufferView" : 0, "byteOffset" : 550752, "componentType" : 5123, "count" : 54, "type" : "SCALAR", "max" : [19], "min" : [0]}, {"bufferView" : 8, "byteOffset" : 0, "componentType" : 5126, "count" : 20, "type" : "VEC3", "max" : [35.94029998779297, 9.671899795532227, 33.542301177978516], "min" : [-35.94029998779297, 9.671899795532227, -38.33829879760742], "name" : "POSITION"}, {"bufferView" : 8, "byteOffset" : 12, "componentType" : 5126, "count" : 20, "type" : "VEC2", "max" : [0.9810100197792053, 0.981410026550293], "min" : [0.01899000070989132, 0.01940000057220459], "name" : "TEXCOORD_0"}, {"bufferView" : 0, "byteOffset" : 550860, "componentType" : 5123, "count" : 17868, "type" : "SCALAR", "max" : [3369], "min" : [0]}, {"bufferView" : 9, "byteOffset" : 0, "componentType" : 5126, "count" : 3370, "type" : "VEC3", "max" : [64.72820281982422, 10.677800178527832, 63.477500915527344], "min" : [-64.72820281982422, 0.31150001287460327, -70.5873031616211], "name" : "POSITION"}, {"bufferView" : 9, "byteOffset" : 12, "componentType" : 5126, "count" : 3370, "type" : "VEC2", "max" : [0.9801099896430969, 0.969569981098175], "min" : [0.0228899996727705, 0.01723998785018921], "name" : "TEXCOORD_0"}], "asset" : {"generator" : "Aspose.3D 24.6.0", "version" : "2.0"}, "buffers" : [{"uri" : "data:application/octet-stream;base64,", "byteLength" : 1709476}], "bufferViews" : [{"buffer" : 0, "byteOffset" : 0, "byteLength" : 586596, "target" : 34963}, {"buffer" : 0, "byteOffset" : 586600, "byteLength" : 22100, "byteStride" : 20, "target" : 34962}, {"buffer" : 0, "byteOffset" : 608704, "byteLength" : 202800, "byteStride" : 20, "target" : 34962}, {"buffer" : 0, "byteOffset" : 811508, "byteLength" : 530200, "byteStride" : 20, "target" : 34962}, {"buffer" : 0, "byteOffset" : 1341712, "byteLength" : 52600, "byteStride" : 20, "target" : 34962}, {"buffer" : 0, "byteOffset" : 1394316, "byteLength" : 235120, "byteStride" : 20, "target" : 34962}, {"buffer" : 0, "byteOffset" : 1629440, "byteLength" : 440, "byteStride" : 20, "target" : 34962}, {"buffer" : 0, "byteOffset" : 1629884, "byteLength" : 11780, "byteStride" : 20, "target" : 34962}, {"buffer" : 0, "byteOffset" : 1641668, "byteLength" : 400, "byteStride" : 20, "target" : 34962}, {"buffer" : 0, "byteOffset" : 1642072, "byteLength" : 67400, "byteStride" : 20, "target" : 34962}], "meshes" : [{"primitives" : [{"attributes" : {"POSITION" : 1, "TEXCOORD_0" : 2}, "indices" : 0, "mode" : 4}, {"attributes" : {"POSITION" : 4, "TEXCOORD_0" : 5}, "indices" : 3, "mode" : 4}, {"attributes" : {"POSITION" : 7, "TEXCOORD_0" : 8}, "indices" : 6, "mode" : 4}, {"attributes" : {"POSITION" : 10, "TEXCOORD_0" : 11}, "indices" : 9, "mode" : 4}, {"attributes" : {"POSITION" : 13, "TEXCOORD_0" : 14}, "indices" : 12, "mode" : 4}, {"attributes" : {"POSITION" : 16, "TEXCOORD_0" : 17}, "indices" : 15, "mode" : 4}, {"attributes" : {"POSITION" : 19, "TEXCOORD_0" : 20}, "indices" : 18, "mode" : 4}, {"attributes" : {"POSITION" : 22, "TEXCOORD_0" : 23}, "indices" : 21, "mode" : 4}, {"attributes" : {"POSITION" : 25, "TEXCOORD_0" : 26}, "indices" : 24, "mode" : 4}], "name" : ""}], "nodes" : [{"mesh" : 0, "name" : ""}], "scene" : 0, "scenes" : [{"nodes" : [0]}]}